<!--?xml version="1.0" encoding="utf-8"?-->
<!-- Generator: Adobe Illustrator 18.1.1, SVG Export Plug-In . SVG Version: 6.00 Build 0)  -->

<svg version="1.1" id="_x32_" xmlns="http://www.w3.org/2000/svg" xmlns:xlink="http://www.w3.org/1999/xlink" x="0px" y="0px" viewBox="0 0 512 512" style="width: 64px; height: 64px; opacity: 1;" xml:space="preserve">
<style type="text/css">
	.st0{fill:#4B4B4B;}
</style>
<g>
	<rect y="311.005" class="st0" width="512" height="32" style="fill: rgb(75, 75, 75);"></rect>
	<path class="st0" d="M48.001,366.334c-12.156,0-22,9.852-22,22c0,12.157,9.844,22,22,22c12.149,0,22-9.843,22-22
		C70.001,376.186,60.15,366.334,48.001,366.334z" style="fill: rgb(75, 75, 75);"></path>
	<path class="st0" d="M152.002,366.334c-12.156,0-22,9.852-22,22c0,12.157,9.844,22,22,22c12.149,0,22-9.843,22-22
		C174.003,376.186,164.151,366.334,152.002,366.334z" style="fill: rgb(75, 75, 75);"></path>
	<path class="st0" d="M256.004,366.334c-12.156,0-22,9.852-22,22c0,12.157,9.844,22,22,22c12.149,0,22-9.843,22-22
		C278.004,376.186,268.153,366.334,256.004,366.334z" style="fill: rgb(75, 75, 75);"></path>
	<path class="st0" d="M360.006,366.334c-12.149,0-22,9.852-22,22c0,12.157,9.851,22,22,22c12.149,0,21.992-9.843,21.992-22
		C381.998,376.186,372.154,366.334,360.006,366.334z" style="fill: rgb(75, 75, 75);"></path>
	<path class="st0" d="M464.015,366.334c-12.157,0-22,9.852-22,22c0,12.157,9.844,22,22,22c12.141,0,21.984-9.843,21.984-22
		C486,376.186,476.156,366.334,464.015,366.334z" style="fill: rgb(75, 75, 75);"></path>
	<path class="st0" d="M225.34,284.34V101.666H30.664v194.675H225.34V284.34z M201.339,272.34H54.665V125.666h48.634v51.994
		l24.704-10.703l24.704,10.703v-51.994h48.634V272.34z" style="fill: rgb(75, 75, 75);"></path>
</g>
</svg>
